<svg width="18" height="18" viewBox="0 0 18 18" fill="none" xmlns="http://www.w3.org/2000/svg">
<path d="M13.7247 4.28218C13.6553 4.21265 13.5729 4.15749 13.4821 4.11986C13.3914 4.08222 13.2942 4.06285 13.1959 4.06285C13.0977 4.06285 13.0004 4.08222 12.9097 4.11986C12.819 4.15749 12.7366 4.21265 12.6672 4.28218L8.99968 7.94218L5.33218 4.27468C5.26274 4.20524 5.18031 4.15016 5.08959 4.11258C4.99886 4.07501 4.90163 4.05566 4.80343 4.05566C4.70523 4.05566 4.60799 4.07501 4.51727 4.11258C4.42655 4.15016 4.34412 4.20524 4.27468 4.27468C4.20524 4.34412 4.15016 4.42655 4.11258 4.51727C4.07501 4.60799 4.05566 4.70523 4.05566 4.80343C4.05566 4.90163 4.07501 4.99886 4.11258 5.08959C4.15016 5.18031 4.20524 5.26274 4.27468 5.33218L7.94218 8.99968L4.27468 12.6672C4.20524 12.7366 4.15016 12.819 4.11258 12.9098C4.07501 13.0005 4.05566 13.0977 4.05566 13.1959C4.05566 13.2941 4.07501 13.3914 4.11258 13.4821C4.15016 13.5728 4.20524 13.6552 4.27468 13.7247C4.34412 13.7941 4.42655 13.8492 4.51727 13.8868C4.60799 13.9244 4.70523 13.9437 4.80343 13.9437C4.90163 13.9437 4.99886 13.9244 5.08959 13.8868C5.18031 13.8492 5.26274 13.7941 5.33218 13.7247L8.99968 10.0572L12.6672 13.7247C12.7366 13.7941 12.819 13.8492 12.9098 13.8868C13.0005 13.9244 13.0977 13.9437 13.1959 13.9437C13.2941 13.9437 13.3914 13.9244 13.4821 13.8868C13.5728 13.8492 13.6552 13.7941 13.7247 13.7247C13.7941 13.6552 13.8492 13.5728 13.8868 13.4821C13.9244 13.3914 13.9437 13.2941 13.9437 13.1959C13.9437 13.0977 13.9244 13.0005 13.8868 12.9098C13.8492 12.819 13.7941 12.7366 13.7247 12.6672L10.0572 8.99968L13.7247 5.33218C14.0097 5.04718 14.0097 4.56718 13.7247 4.28218Z" fill="black"/>
</svg>
