<svg width="45" height="44" viewBox="0 0 45 44" fill="none" xmlns="http://www.w3.org/2000/svg">
<g id="ph:question-fill">
<path id="Vector" d="M22.5 4.125C18.9647 4.125 15.5087 5.17335 12.5692 7.13748C9.62965 9.10161 7.33857 11.8933 5.98565 15.1595C4.63274 18.4258 4.27875 22.0198 4.96846 25.4872C5.65817 28.9547 7.3606 32.1397 9.86047 34.6395C12.3603 37.1394 15.5454 38.8418 19.0128 39.5315C22.4802 40.2212 26.0742 39.8673 29.3405 38.5143C32.6067 37.1614 35.3984 34.8703 37.3625 31.9308C39.3266 28.9913 40.375 25.5353 40.375 22C40.37 17.2608 38.4851 12.7171 35.134 9.36599C31.7829 6.01487 27.2392 4.13 22.5 4.125ZM22.5 33C22.0921 33 21.6933 32.879 21.3541 32.6524C21.015 32.4258 20.7506 32.1037 20.5945 31.7268C20.4384 31.3499 20.3975 30.9352 20.4771 30.5351C20.5567 30.135 20.7531 29.7675 21.0416 29.4791C21.33 29.1906 21.6975 28.9942 22.0976 28.9146C22.4977 28.8351 22.9124 28.8759 23.2893 29.032C23.6662 29.1881 23.9883 29.4525 24.2149 29.7916C24.4415 30.1308 24.5625 30.5296 24.5625 30.9375C24.5625 31.4845 24.3452 32.0091 23.9584 32.3959C23.5716 32.7827 23.047 33 22.5 33ZM23.875 24.6263V24.75C23.875 25.1147 23.7301 25.4644 23.4723 25.7223C23.2144 25.9801 22.8647 26.125 22.5 26.125C22.1353 26.125 21.7856 25.9801 21.5277 25.7223C21.2699 25.4644 21.125 25.1147 21.125 24.75V23.375C21.125 23.0103 21.2699 22.6606 21.5277 22.4027C21.7856 22.1449 22.1353 22 22.5 22C24.7739 22 26.625 20.4531 26.625 18.5625C26.625 16.6719 24.7739 15.125 22.5 15.125C20.2261 15.125 18.375 16.6719 18.375 18.5625V19.25C18.375 19.6147 18.2301 19.9644 17.9723 20.2223C17.7144 20.4801 17.3647 20.625 17 20.625C16.6353 20.625 16.2856 20.4801 16.0277 20.2223C15.7699 19.9644 15.625 19.6147 15.625 19.25V18.5625C15.625 15.1508 18.7084 12.375 22.5 12.375C26.2916 12.375 29.375 15.1508 29.375 18.5625C29.375 21.5497 27.01 24.0505 23.875 24.6263Z" fill="#F9BD4D"/>
</g>
</svg>
