<svg width="147" height="20" viewBox="0 0 147 20" fill="none" xmlns="http://www.w3.org/2000/svg">
<g id="Social">
<g id="logo-twitter">
<path id="Path" d="M16 5.51942C15.4263 5.81775 14.8206 6.0042 14.1831 6.11608C14.8206 5.66858 15.3306 4.96005 15.5538 4.10235C14.9481 4.51255 14.2788 4.81088 13.5456 4.99734C12.9719 4.2888 12.1431 3.84131 11.2506 3.84131C9.52938 3.84131 8.12688 5.48213 8.12688 7.49586C8.12688 7.79419 8.15876 8.05523 8.22251 8.31627C5.64063 8.1671 3.31376 6.71274 1.75189 4.47526C1.49689 5.03463 1.33751 5.63129 1.33751 6.30253C1.33751 7.57044 1.87939 8.68918 2.74001 9.36042C2.23001 9.32313 1.75189 9.17396 1.30564 8.91293V8.95022C1.30564 10.7402 2.38939 12.2319 3.82376 12.5675C3.56876 12.6421 3.28189 12.6793 2.99501 12.6793C2.80376 12.6793 2.58064 12.6421 2.38939 12.6048C2.80376 14.0591 3.95126 15.1406 5.32188 15.1406C4.23813 16.1101 2.89939 16.7068 1.43314 16.7068C1.17814 16.7068 0.923137 16.7068 0.700012 16.6695C2.10251 17.7137 3.72813 18.3103 5.51313 18.3103C11.2825 18.3103 14.4381 12.7166 14.4381 7.86877C14.4381 7.7196 14.4381 7.53315 14.4381 7.38398C15.0438 6.8992 15.5856 6.26524 16 5.51942Z" fill="white"/>
</g>
<g id="logo-facebook">
<path id="Path_2" d="M60.1 10.1663C60.0993 5.26155 56.5382 1.21589 51.9963 0.960019C47.4545 0.704146 43.5219 4.32762 43.0473 9.20555C42.5727 14.0835 45.7223 18.5083 50.2144 19.2747V12.8315H48.0439V10.1663H50.2144V8.13492C50.2144 5.8241 51.491 4.54767 53.4435 4.54767C54.0848 4.55726 54.7245 4.61735 55.3576 4.72746V6.9968H54.2793C53.9071 6.94348 53.5326 7.07562 53.2615 7.3559C52.9905 7.63618 52.8524 8.03416 52.8862 8.43746V10.1663H55.2577L54.8783 12.8315H52.8862V19.2747C57.0412 18.5659 60.1007 14.7028 60.1 10.1663Z" fill="white"/>
</g>
<g id="logo-instagram">
<path id="Shape" fill-rule="evenodd" clip-rule="evenodd" d="M91.8605 1.9642C92.7245 1.92224 93.0002 1.91211 95.2 1.91211C97.3999 1.91211 97.6756 1.92224 98.5396 1.9642C99.8565 2.02859 101.012 2.37439 101.941 3.36914C102.869 4.36425 103.191 5.60352 103.251 7.01425C103.291 7.94027 103.3 8.2358 103.3 10.5935C103.3 12.9513 103.291 13.2468 103.251 14.1728C103.191 15.5843 102.869 16.8232 101.941 17.8179C101.012 18.813 99.8555 19.1585 98.5396 19.2229C97.6756 19.2648 97.3999 19.2749 95.2 19.2749C93.0002 19.2749 92.7245 19.2648 91.8605 19.2229C90.5436 19.1585 89.3876 18.8127 88.4595 17.8179C87.531 16.8228 87.2087 15.5835 87.1486 14.1728C87.1095 13.2468 87.1 12.9513 87.1 10.5935C87.1 8.2358 87.1095 7.94027 87.1486 7.01425C87.2087 5.6028 87.5314 4.36389 88.4595 3.36914C89.388 2.37403 90.5442 2.02859 91.8605 1.9642ZM98.4731 3.52685C97.6189 3.48489 97.3627 3.47621 95.2 3.47621C93.0373 3.47621 92.7812 3.48525 91.927 3.52685C91.0053 3.57207 90.1497 3.76993 89.4916 4.4753C88.8334 5.18066 88.6488 6.09764 88.6066 7.08551C88.5675 8.00104 88.5594 8.27559 88.5594 10.5935C88.5594 12.9115 88.5678 13.186 88.6066 14.1015C88.6488 15.0894 88.8334 16.0064 89.4916 16.7118C90.1497 17.4171 91.0053 17.615 91.927 17.6602C92.7808 17.7022 93.037 17.7108 95.2 17.7108C97.3631 17.7108 97.6192 17.7018 98.4731 17.6602C99.3948 17.615 100.25 17.4171 100.909 16.7118C101.567 16.0064 101.751 15.0894 101.793 14.1015C101.833 13.186 101.841 12.9115 101.841 10.5935C101.841 8.27559 101.832 8.00104 101.793 7.08551C101.751 6.09764 101.567 5.18066 100.909 4.4753C100.25 3.76993 99.3948 3.57207 98.4731 3.52685Z" fill="white"/>
<path id="Shape_2" fill-rule="evenodd" clip-rule="evenodd" d="M91.5182 10.9882C91.5182 8.59099 93.3312 6.64746 95.5682 6.64746C97.8052 6.64746 99.6182 8.59064 99.6182 10.9882C99.6182 13.3857 97.8052 15.3289 95.5682 15.3289C93.3312 15.3289 91.5182 13.3853 91.5182 10.9882ZM92.9392 10.9882C92.9392 12.5443 94.1163 13.8059 95.5682 13.8059C97.0201 13.8059 98.1972 12.5443 98.1972 10.9882C98.1972 9.43208 97.0201 8.17044 95.5682 8.17044C94.1163 8.17044 92.9392 9.43208 92.9392 10.9882Z" fill="white"/>
<ellipse id="Oval" cx="99.25" cy="6.25268" rx="1.10452" ry="1.18383" fill="white"/>
</g>
<g id="logo-linkedin">
<path id="Shape_3" fill-rule="evenodd" clip-rule="evenodd" d="M130.975 1.91211H145.825C146.196 1.91211 146.5 2.23766 146.5 2.63556V18.5515C146.5 18.9494 146.196 19.2749 145.825 19.2749H130.975C130.604 19.2749 130.3 18.9494 130.3 18.5515V2.63556C130.3 2.23766 130.604 1.91211 130.975 1.91211ZM132.696 16.7067H135.093V8.42317H132.696V16.7067ZM133.911 7.30182C133.135 7.30182 132.528 6.65072 132.528 5.81875C132.528 4.98678 133.135 4.33567 133.911 4.33567C134.688 4.33567 135.295 4.98678 135.295 5.81875C135.295 6.61454 134.688 7.30182 133.911 7.30182ZM141.708 16.7067H144.07V12.1489C144.07 9.90625 143.631 8.20614 141.201 8.20614C140.054 8.20614 139.244 8.89342 138.94 9.54452H138.906V8.42317H136.611V16.7067H139.008V12.6192C139.008 11.534 139.21 10.485 140.459 10.485C141.708 10.485 141.708 11.7149 141.708 12.6915V16.7067Z" fill="white"/>
</g>
</g>
</svg>
