<svg width="150" height="150" viewBox="0 0 150 150" fill="none" xmlns="http://www.w3.org/2000/svg">
<circle cx="75" cy="75" r="75" fill="#F05050"/>
<g clip-path="url(#clip0_471_2783)">
<path fill-rule="evenodd" clip-rule="evenodd" d="M114.775 46.2959C115.947 47.4679 116.605 49.0573 116.605 50.7146C116.605 52.3719 115.947 53.9613 114.775 55.1334L67.9291 101.979C67.31 102.598 66.575 103.09 65.7661 103.425C64.9572 103.76 64.0901 103.932 63.2145 103.932C62.3389 103.932 61.4719 103.76 60.663 103.425C59.854 103.09 59.119 102.598 58.4999 101.979L35.2249 78.7084C34.628 78.1318 34.1519 77.4422 33.8243 76.6796C33.4968 75.9171 33.3243 75.097 33.3171 74.2671C33.3099 73.4373 33.4681 72.6143 33.7823 71.8462C34.0966 71.078 34.5606 70.3802 35.1475 69.7934C35.7343 69.2066 36.4321 68.7425 37.2002 68.4282C37.9683 68.114 38.7913 67.9558 39.6212 67.963C40.4511 67.9703 41.2712 68.1427 42.0337 68.4702C42.7962 68.7978 43.4859 69.2739 44.0624 69.8709L63.2124 89.0209L105.933 46.2959C106.514 45.7151 107.203 45.2543 107.961 44.94C108.72 44.6257 109.533 44.4639 110.354 44.4639C111.175 44.4639 111.988 44.6257 112.747 44.94C113.505 45.2543 114.195 45.7151 114.775 46.2959Z" fill="white"/>
</g>
<defs>
<clipPath id="clip0_471_2783">
<rect width="100" height="100" fill="white" transform="translate(25 25)"/>
</clipPath>
</defs>
</svg>
