<svg width="25" height="24" viewBox="0 0 25 24" fill="none" xmlns="http://www.w3.org/2000/svg">
<path d="M9.91126 3.99952C10.1179 3.41399 10.501 2.90695 11.0079 2.54831C11.5147 2.18967 12.1203 1.99707 12.7413 1.99707C13.3622 1.99707 13.9678 2.18967 14.4747 2.54831C14.9815 2.90695 15.3647 3.41399 15.5713 3.99952M21.2413 5.99952H4.24126M19.5743 8.49952L19.1143 15.3995C18.9373 18.0535 18.8493 19.3805 17.9843 20.1895C17.1193 20.9995 15.7883 20.9995 13.1283 20.9995H12.3543C9.69426 20.9995 8.36326 20.9995 7.49826 20.1895C6.63326 19.3805 6.54426 18.0535 6.36826 15.3995L5.90826 8.49952M10.2413 10.9995L10.7413 15.9995M15.2413 10.9995L14.7413 15.9995" stroke="#F05050" stroke-width="1.5" stroke-linecap="round"/>
</svg>
