<svg width="150" height="150" viewBox="0 0 150 150" fill="none" xmlns="http://www.w3.org/2000/svg">
<path d="M75 12.5C40.4375 12.5 12.5 40.4375 12.5 75C12.5 109.562 40.4375 137.5 75 137.5C109.562 137.5 137.5 109.562 137.5 75C137.5 40.4375 109.562 12.5 75 12.5ZM101.875 101.875C101.297 102.454 100.61 102.914 99.8539 103.228C99.0978 103.541 98.2873 103.703 97.4688 103.703C96.6502 103.703 95.8397 103.541 95.0836 103.228C94.3275 102.914 93.6407 102.454 93.0625 101.875L75 83.8125L56.9375 101.875C55.7689 103.044 54.1839 103.7 52.5312 103.7C50.8786 103.7 49.2936 103.044 48.125 101.875C46.9564 100.706 46.2999 99.1214 46.2999 97.4688C46.2999 96.6504 46.461 95.8401 46.7742 95.0841C47.0874 94.3281 47.5464 93.6411 48.125 93.0625L66.1875 75L48.125 56.9375C46.9564 55.7689 46.2999 54.1839 46.2999 52.5312C46.2999 50.8786 46.9564 49.2936 48.125 48.125C49.2936 46.9564 50.8786 46.2999 52.5312 46.2999C54.1839 46.2999 55.7689 46.9564 56.9375 48.125L75 66.1875L93.0625 48.125C93.6411 47.5464 94.3281 47.0874 95.0841 46.7742C95.8401 46.461 96.6504 46.2999 97.4688 46.2999C98.2871 46.2999 99.0974 46.461 99.8534 46.7742C100.609 47.0874 101.296 47.5464 101.875 48.125C102.454 48.7036 102.913 49.3906 103.226 50.1466C103.539 50.9026 103.7 51.7129 103.7 52.5312C103.7 53.3496 103.539 54.1599 103.226 54.9159C102.913 55.6719 102.454 56.3589 101.875 56.9375L83.8125 75L101.875 93.0625C104.25 95.4375 104.25 99.4375 101.875 101.875Z" fill="#F05050"/>
</svg>
