<svg width="39" height="24" viewBox="0 0 39 24" fill="none" xmlns="http://www.w3.org/2000/svg">
<g clip-path="url(#clip0_399_2073)">
<path d="M14.0649 2.54785H24.4896V21.2792H14.0649V2.54785Z" fill="#FF5F00"/>
<path d="M14.727 11.9139C14.727 8.10814 16.514 4.73246 19.2608 2.54819C17.2422 0.959698 14.694 0 11.9141 0C5.32809 0 0 5.32809 0 11.9139C0 18.4996 5.32809 23.8278 11.9139 23.8278C14.6938 23.8278 17.242 22.8681 19.2608 21.2795C16.514 19.1284 14.727 15.7197 14.727 11.9139Z" fill="#EB001B"/>
<path d="M38.5547 11.9139C38.5547 18.4996 33.2266 23.8278 26.6408 23.8278C23.8609 23.8278 21.3127 22.8681 19.2939 21.2795C22.0738 19.0954 23.8279 15.7197 23.8279 11.9139C23.8279 8.10814 22.0407 4.73246 19.2939 2.54819C21.3125 0.959698 23.8609 0 26.6408 0C33.2266 0 38.5547 5.36126 38.5547 11.9139Z" fill="#F79E1B"/>
</g>
<defs>
<clipPath id="clip0_399_2073">
<rect width="39" height="24" fill="white"/>
</clipPath>
</defs>
</svg>
