<svg width="56" height="18" viewBox="0 0 56 18" fill="none" xmlns="http://www.w3.org/2000/svg">
<g clip-path="url(#clip0_399_2071)">
<path d="M28.7126 5.73111C28.6809 8.22855 30.9383 9.62214 32.6388 10.4508C34.3859 11.3009 34.9727 11.8461 34.9658 12.6065C34.9527 13.77 33.5722 14.2835 32.2803 14.3034C30.0264 14.3384 28.7159 13.6949 27.674 13.2083L26.8621 17.0076C27.9074 17.4892 29.8429 17.9093 31.85 17.9277C36.5615 17.9277 39.6438 15.602 39.6605 11.9962C39.6789 7.41986 33.3306 7.16655 33.374 5.12106C33.3889 4.50082 33.9808 3.83894 35.2776 3.67065C35.9195 3.58564 37.6916 3.52058 39.7006 4.44573L40.4892 0.769833C39.4087 0.376434 38.0201 -0.000265121 36.2913 -0.000265121C31.8567 -0.000265121 28.7378 2.35708 28.7126 5.73111ZM48.0661 0.316362C47.2058 0.316362 46.4808 0.818192 46.1572 1.58829L39.4272 17.6577H44.1351L45.072 15.0686H50.8251L51.3685 17.6577H55.5181L51.897 0.316362H48.0661ZM48.7247 5.00092L50.0834 11.5128H46.3624L48.7247 5.00092ZM23.0044 0.316578L19.2934 17.6575H23.7797L27.489 0.316145L23.0044 0.316578ZM16.3676 0.316578L11.698 12.1196L9.80913 2.08362C9.58749 0.963278 8.71222 0.316362 7.74022 0.316362H0.106916L0 0.819927C1.56708 1.15998 3.34757 1.70843 4.42627 2.29528C5.08641 2.65376 5.27465 2.96713 5.49152 3.81899L9.06918 17.6577H13.8101L21.0787 0.316362L16.3676 0.316578Z" fill="url(#paint0_linear_399_2071)"/>
</g>
<defs>
<linearGradient id="paint0_linear_399_2071" x1="2552.39" y1="53.8913" x2="2604.28" y2="-1787.34" gradientUnits="userSpaceOnUse">
<stop stop-color="#222357"/>
<stop offset="1" stop-color="#254AA5"/>
</linearGradient>
<clipPath id="clip0_399_2071">
<rect width="55.5181" height="18" fill="white"/>
</clipPath>
</defs>
</svg>
