<svg width="150" height="150" viewBox="0 0 150 150" fill="none" xmlns="http://www.w3.org/2000/svg">
<path d="M74.6875 112.5C76.875 112.5 78.725 111.744 80.2375 110.231C81.75 108.719 82.5042 106.871 82.5 104.688C82.5 102.5 81.7458 100.65 80.2375 99.1375C78.7292 97.625 76.8792 96.8708 74.6875 96.875C72.5 96.875 70.6521 97.6312 69.1437 99.1438C67.6354 100.656 66.8792 102.504 66.875 104.688C66.875 106.875 67.6312 108.725 69.1437 110.238C70.6562 111.75 72.5042 112.504 74.6875 112.5ZM69.0625 88.4375H80.625C80.625 85 81.0167 82.2917 81.8 80.3125C82.5833 78.3333 84.7958 75.625 88.4375 72.1875C91.1458 69.4792 93.2812 66.9 94.8438 64.45C96.4062 62 97.1875 59.0583 97.1875 55.625C97.1875 49.7917 95.0521 45.3125 90.7812 42.1875C86.5104 39.0625 81.4583 37.5 75.625 37.5C69.6875 37.5 64.8708 39.0625 61.175 42.1875C57.4792 45.3125 54.9 49.0625 53.4375 53.4375L63.75 57.5C64.2708 55.625 65.4437 53.5938 67.2687 51.4063C69.0937 49.2188 71.8792 48.125 75.625 48.125C78.9583 48.125 81.4583 49.0375 83.125 50.8625C84.7917 52.6875 85.625 54.6917 85.625 56.875C85.625 58.9583 85 60.9125 83.75 62.7375C82.5 64.5625 80.9375 66.2542 79.0625 67.8125C74.4792 71.875 71.6667 74.9479 70.625 77.0312C69.5833 79.1146 69.0625 82.9167 69.0625 88.4375ZM75 137.5C66.3542 137.5 58.2292 135.86 50.625 132.581C43.0208 129.302 36.4063 124.848 30.7813 119.219C25.1563 113.594 20.7042 106.979 17.425 99.375C14.1458 91.7708 12.5042 83.6458 12.5 75C12.5 66.3542 14.1417 58.2292 17.425 50.625C20.7083 43.0208 25.1604 36.4063 30.7813 30.7813C36.4063 25.1563 43.0208 20.7042 50.625 17.425C58.2292 14.1458 66.3542 12.5042 75 12.5C83.6458 12.5 91.7708 14.1417 99.375 17.425C106.979 20.7083 113.594 25.1604 119.219 30.7813C124.844 36.4063 129.298 43.0208 132.581 50.625C135.865 58.2292 137.504 66.3542 137.5 75C137.5 83.6458 135.858 91.7708 132.575 99.375C129.292 106.979 124.84 113.594 119.219 119.219C113.594 124.844 106.979 129.298 99.375 132.581C91.7708 135.865 83.6458 137.504 75 137.5Z" fill="#F05050"/>
</svg>
