<svg width="28" height="28" viewBox="0 0 28 28" fill="none" xmlns="http://www.w3.org/2000/svg">
<path fill-rule="evenodd" clip-rule="evenodd" d="M25.6666 13.9997C25.6666 20.4432 20.4435 25.6663 14 25.6663C7.55648 25.6663 2.33331 20.4432 2.33331 13.9997C2.33331 7.55618 7.55648 2.33301 14 2.33301C20.4435 2.33301 25.6666 7.55618 25.6666 13.9997ZM18.7016 10.4647C18.8655 10.6287 18.9575 10.8511 18.9575 11.083C18.9575 11.3149 18.8655 11.5373 18.7016 11.7013L12.8683 17.5347C12.7043 17.6985 12.4819 17.7906 12.25 17.7906C12.0181 17.7906 11.7957 17.6985 11.6316 17.5347L9.29831 15.2013C9.21235 15.1212 9.14339 15.0246 9.09557 14.9173C9.04774 14.81 9.02203 14.6941 9.01996 14.5766C9.01788 14.4591 9.0395 14.3424 9.0835 14.2335C9.12751 14.1245 9.19301 14.0256 9.2761 13.9425C9.35919 13.8594 9.45816 13.7939 9.56712 13.7499C9.67607 13.7059 9.79277 13.6842 9.91026 13.6863C10.0277 13.6884 10.1436 13.7141 10.2509 13.7619C10.3583 13.8098 10.4549 13.8787 10.535 13.9647L12.25 15.6797L14.8575 13.0722L17.465 10.4647C17.629 10.3008 17.8514 10.2088 18.0833 10.2088C18.3152 10.2088 18.5376 10.3008 18.7016 10.4647Z" fill="#F05050"/>
</svg>
